# xmcd CD database file
#
# Track frame offsets:
#	150
#	17347
#	40278
#	55275
#	68336
#	85168
#	109045
#	134742
#	150006
#	160910
#	182791
#	205985
#	223024
#
# Disc length: 3327 seconds
#
# Revision: 0
# Processed by: cddbd v1.5.2PL0 Copyright (c) Steve Scherf et al.
# Submitted via: CDex 1.51
#
DISCID=a70cfd0d
DTITLE=Kurt Reichenbach - The Night Was Blue
DYEAR=2006
DGENRE=Jazz
TTITLE0=Come Dance With Me
TTITLE1=My Foolish Heart
TTITLE2=I Remember You
TTITLE3=Something In Your Smile
TTITLE4=I Like You
TTITLE5=It Amazes Me
TTITLE6=Sleight Of Heart
TTITLE7=Like A Lover
TTITLE8=Flexible
TTITLE9=For All We Know
TTITLE10=Some Other Spring
TTITLE11=Waters Of March
TTITLE12=When October Goes
EXTD=YEAR: 2006
EXTT0=
EXTT1=
EXTT2=
EXTT3=
EXTT4=
EXTT5=
EXTT6=
EXTT7=
EXTT8=
EXTT9=
EXTT10=
EXTT11=
EXTT12=
PLAYORDER=
